<svg width="190" height="88" viewBox="0 0 190 88" fill="none" xmlns="http://www.w3.org/2000/svg">
<g clip-path="url(#clip0_63_108)">
<path d="M59.9449 19.6904C59.9449 10.4007 55.2137 4.00145 45.6553 4.00145C27.065 4.00145 12.25 28.3648 12.25 45.2855C12.25 54.908 16.9337 62.0649 27.638 62.0649C48.8566 62.0649 59.9439 33.863 59.9439 19.6904M29.3114 63.914C12.059 63.914 3.12204 52.4906 3.12204 39.7882C3.12204 22.2501 20.3269 2.15332 43.3615 2.15332C61.2828 2.15332 69.1203 14.3345 69.1203 26.2791C69.1203 43.722 52.2024 63.914 29.3114 63.914Z" fill="white"/>
<path d="M156.036 55.0029H186.909V61.8282H148.295V4.14355H186.192V10.9688H156.036V28.6492H185.666V35.4744H156.036V55.0029Z" fill="white"/>
<path d="M124.973 4.12012H132.715V61.8518H116.705L90.4211 4.40377V61.8518H82.7261V4.12012H98.7365L124.973 61.5201V4.12012Z" fill="white"/>
<path d="M10.1432 86.0261H12.2342C14.8121 86.0261 16.3192 84.2899 16.3192 81.3474C16.3192 78.4049 14.8121 76.6206 12.2342 76.6206H10.1432V86.0261ZM8.78156 87.1361V75.5596H12.1372C15.6384 75.5596 17.7304 77.6815 17.7304 81.3474C17.7304 85.0132 15.6394 87.1352 12.1372 87.1352H8.78156V87.1361Z" fill="white"/>
<path d="M27.6955 86.0405H34.0664V87.1496H26.3328V75.5259H33.8715V76.635H27.6955V80.5903H33.3361V81.6994H27.6955V86.0405Z" fill="white"/>
<path d="M49.7157 75.5444H51.1258L47.4792 87.12H44.9498L41.3507 75.5444H42.8104L46.263 87.0238L49.7157 75.5444Z" fill="white"/>
<path d="M60.5704 86.0405H66.9413V87.1496H59.2087V75.5259H66.7474V76.635H60.5704V80.5903H66.212V81.6994H60.5704V86.0405Z" fill="white"/>
<path d="M76.7659 86.0061H82.1641V87.1161H75.4033V75.5396H76.7659V86.0061Z" fill="white"/>
<path d="M97.7946 81.3422C97.7946 78.3036 96.4329 76.5192 94.0985 76.5192C91.7641 76.5192 90.4509 78.3036 90.4509 81.3422C90.4509 84.3809 91.7641 86.1652 94.0985 86.1652C96.4329 86.1652 97.7946 84.3809 97.7946 81.3422ZM89.0407 81.3422C89.0407 77.5802 90.9378 75.4092 94.0985 75.4092C97.2592 75.4092 99.2047 77.5802 99.2047 81.3422C99.2047 85.1043 97.3077 87.2753 94.0985 87.2753C90.8893 87.2753 89.0407 85.1043 89.0407 81.3422Z" fill="white"/>
<path d="M111.902 81.4775C113.459 81.4775 114.382 80.5608 114.382 79.0179C114.382 77.475 113.506 76.6545 111.951 76.6545H109.179V81.4775H111.902ZM111.854 75.5444C114.333 75.5444 115.793 76.8469 115.793 79.0169C115.793 81.187 114.334 82.5385 111.854 82.5385H109.179V87.121H107.866V75.5444H111.854Z" fill="white"/>
<path d="M135.927 75.5444L136.316 87.12H134.954L134.614 75.6887H134.566L131.21 87.12H128.778L125.617 75.6887H125.568L125.228 87.12H123.963L124.304 75.5444H126.93L129.994 87.0238H130.042L133.301 75.5444H135.927Z" fill="white"/>
<path d="M146.767 86.0405H153.138V87.1496H145.405V75.5259H152.944V76.635H146.767V80.5903H152.409V81.6994H146.767V86.0405Z" fill="white"/>
<path d="M168.949 75.5444H170.213V87.12H167.879L162.918 75.6887H162.87L162.918 87.12H161.605V75.5444H164.036L168.949 87.0238H168.997L168.949 75.5444Z" fill="white"/>
<path d="M178.35 75.5444V76.6535H181.949V87.12H183.31V76.6535H186.91V75.5444H178.35Z" fill="white"/>
</g>
<defs>
<clipPath id="clip0_63_108">
<rect width="190" height="88" fill="white"/>
</clipPath>
</defs>
</svg>
